<svg width="140" height="78" viewBox="0 0 140 78" fill="none" xmlns="http://www.w3.org/2000/svg">
<g clip-path="url(#clip0_2240_61768)">
<path fill-rule="evenodd" clip-rule="evenodd" d="M63.9306 4.33556C60.8377 6.72015 57.8834 8.99665 57.3655 9.39455C56.8475 9.7923 55.1595 11.0946 53.6143 12.2884C52.0692 13.4823 50.6743 14.5895 50.5146 14.749C50.2376 15.0255 50.2242 15.5473 50.2242 26.134C50.2242 37.229 50.2242 37.229 50.6291 37.6089C51.0016 37.9579 51.1822 37.993 52.8699 38.0433C53.932 38.075 54.9845 38.0229 55.3675 37.92C55.8421 37.7925 56.0962 37.6131 56.2657 37.2857C56.4687 36.8943 56.5022 35.513 56.5022 27.5766V18.324L57.0123 17.7904C57.293 17.497 58.6171 16.42 59.9552 15.3969C61.2932 14.374 63.0235 13.0493 63.8004 12.4534C64.5773 11.8575 66.1971 10.6058 67.3996 9.67183C69.2962 8.19912 69.6545 7.98012 70.1008 8.02085C70.5008 8.05719 72.032 9.1602 76.9895 12.983C81.0591 16.1211 83.4182 18.0414 83.5144 18.2939C83.6042 18.5297 83.6472 21.1837 83.6206 24.8674C83.5762 31.0454 83.5762 31.0454 83.2057 31.3448C82.8521 31.6305 82.4807 31.6441 75.0835 31.6441C67.5411 31.6441 67.3234 31.6357 67.0179 31.3308C66.7226 31.036 66.7042 30.8112 66.7075 27.532C66.7105 24.4774 66.7469 23.9673 67.0018 23.4071C67.1619 23.0556 67.5549 22.5137 67.8754 22.2031C68.1957 21.8926 68.7821 21.5282 69.1784 21.3933C69.5747 21.2586 70.1328 21.1483 70.4186 21.1483C70.7045 21.1483 71.2802 21.278 71.698 21.4364C72.116 21.5949 72.8471 22.0179 73.3228 22.3763C73.7985 22.7349 74.2529 23.0282 74.3326 23.0282C74.4124 23.0282 75.384 22.1215 76.4918 21.0133L78.5059 18.9986L74.7631 16.2065C72.7044 14.6708 70.8296 13.3048 70.5967 13.171C70.2632 12.9793 70.0775 12.9636 69.7236 13.0969C69.4763 13.19 67.2494 14.7401 64.7748 16.5414L60.2756 19.8168L60.2723 28.3231C60.2695 35.5863 60.3034 36.8958 60.5048 37.2842C60.6639 37.5915 60.9312 37.7919 61.3288 37.9022C61.7149 38.0092 66.4469 38.0652 75.1009 38.0652C83.6919 38.0652 88.4882 38.0088 88.8688 37.9034C89.1899 37.8143 89.5606 37.5876 89.6928 37.3995C89.9026 37.1003 89.9327 35.6778 89.9327 26.0774C89.9327 15.0974 89.9327 15.0974 89.5011 14.6909C89.2636 14.4672 87.3391 12.9533 85.2242 11.3266C83.1093 9.69987 80.5667 7.74232 79.574 6.97644C78.5813 6.21071 77.3453 5.25653 76.8273 4.85628C76.3094 4.45603 74.7807 3.27658 73.4302 2.2353C72.0796 1.19386 70.8306 0.264902 70.6546 0.17091C70.4785 0.0769172 70.159 0 69.9443 0C69.6734 0 67.8334 1.32655 63.9306 4.33556Z" fill="#3CB0C9"/>
<path fill-rule="evenodd" clip-rule="evenodd" d="M102.781 38.6906C102.314 39.1576 102.314 39.1576 102.372 50.8705C102.423 60.9236 102.466 62.6972 102.676 63.3873C102.811 63.8294 103.154 64.6274 103.439 65.1608C103.724 65.694 104.28 66.4146 104.675 66.7621C105.069 67.1096 105.715 67.5576 106.11 67.7576C106.505 67.9578 107.281 68.2415 107.836 68.3883C108.448 68.55 109.464 68.6586 110.415 68.6639C111.278 68.6687 112.36 68.5809 112.819 68.4687C113.278 68.3565 113.79 68.1187 113.957 67.9401C114.229 67.6488 114.26 67.3702 114.26 65.2169C114.26 63.0272 114.233 62.7911 113.946 62.505C113.774 62.3327 113.544 62.187 113.436 62.1814C113.328 62.1756 112.781 62.1519 112.22 62.1286C111.659 62.1052 111 61.9904 110.755 61.8731C110.511 61.7559 110.176 61.3947 110.01 61.0705C109.733 60.5299 109.709 60.1096 109.709 56.0101C109.709 51.7481 109.723 51.5247 110.022 51.2259C110.313 50.936 110.546 50.9126 113.144 50.9126C115.594 50.9126 115.992 50.9476 116.265 51.1868C116.437 51.3375 116.829 52.2011 117.135 53.1058C117.441 54.0105 118.41 56.8302 119.288 59.3719C120.166 61.9137 121.159 64.8039 121.495 65.7948C121.912 67.0269 122.232 67.7077 122.507 67.9488C122.755 68.1659 123.114 68.3012 123.442 68.3012C123.813 68.3012 124.047 68.4062 124.218 68.6495C124.352 68.8409 124.462 69.1425 124.462 69.3195C124.462 69.4965 124.352 69.7981 124.218 69.9895C123.973 70.3377 123.973 70.3377 117.221 70.3377C110.469 70.3377 110.469 70.3377 110.001 70.8053C109.532 71.273 109.532 71.273 109.581 74.1875C109.629 77.0338 109.639 77.1093 110.001 77.4013C110.356 77.688 110.747 77.7005 119.351 77.7005C128.331 77.7005 128.331 77.7005 128.647 77.348C128.821 77.1541 129.145 76.4668 129.368 75.8206C129.59 75.1744 130.584 72.3194 131.576 69.4761C132.568 66.6329 133.958 62.6499 134.665 60.6252C135.372 58.6004 136.791 54.5299 137.818 51.5797C138.845 48.6294 139.686 45.9805 139.686 45.6932C139.686 45.3346 139.559 45.052 139.281 44.7912C138.898 44.4309 138.76 44.4088 136.585 44.3602C135.324 44.332 134.07 44.3507 133.799 44.4014C133.528 44.4522 133.188 44.581 133.044 44.6877C132.893 44.7993 132.024 47.1373 130.992 50.2077C130.007 53.1371 128.937 56.2971 128.614 57.23C128.29 58.1627 127.925 59.0264 127.802 59.149C127.679 59.2715 127.383 59.3719 127.143 59.3719C126.904 59.3719 126.593 59.2454 126.453 59.0907C126.313 58.9361 126.059 58.3546 125.89 57.7984C125.72 57.2422 125.111 55.1658 124.535 53.1841C123.96 51.2024 123.207 48.5941 122.861 47.3879C122.425 45.8637 122.118 45.0754 121.854 44.8031C121.473 44.4115 121.473 44.4115 115.865 44.3704C110.387 44.3302 110.252 44.3217 109.983 44.0006C109.749 43.7197 109.709 43.3307 109.709 41.3323C109.709 39.0572 109.698 38.982 109.323 38.6082C108.943 38.2282 108.904 38.2236 106.094 38.2236C103.249 38.2236 103.249 38.2236 102.781 38.6906ZM27.2722 43.8572C26.8634 43.9321 26.1571 44.1148 25.7027 44.2631C25.2485 44.4116 24.5235 44.708 24.0919 44.9219C23.6603 45.1355 22.8726 45.618 22.3413 45.9938C21.81 46.3698 21.01 47.084 20.5634 47.5809C20.1167 48.0778 19.4777 48.9427 19.1437 49.5027C18.8096 50.0628 18.3103 51.1907 18.0343 52.0092C17.605 53.2825 17.5213 53.7864 17.4561 55.4984C17.4091 56.725 17.4553 57.9675 17.5752 58.7098C17.6827 59.3756 17.9479 60.4137 18.1644 61.0168C18.381 61.6199 18.8444 62.605 19.1943 63.2056C19.5441 63.8064 20.3317 64.7981 20.9443 65.4097C21.5569 66.0211 22.5665 66.8229 23.188 67.1913C23.8094 67.5598 24.9734 68.0808 25.7744 68.349C27.1653 68.8146 27.3476 68.8368 29.8206 68.8431C32.1077 68.8487 32.5478 68.8066 33.5874 68.4826C34.2349 68.2809 35.259 67.8596 35.8632 67.5466C36.6007 67.1646 37.3776 66.5641 38.2263 65.7204C39.0799 64.8716 39.6537 64.1369 39.992 63.4591C40.2677 62.9068 40.4933 62.2978 40.4933 62.1057C40.4933 61.9137 40.3696 61.604 40.2184 61.4177C40.0232 61.1771 39.3066 60.8999 37.7465 60.4616C36.538 60.1222 35.385 59.8438 35.1843 59.8432C34.9755 59.8424 34.6732 60.023 34.478 60.2652C34.2903 60.498 33.8045 61.0239 33.3985 61.4337C32.8424 61.995 32.4393 62.2428 31.7649 62.4386C31.1368 62.6208 30.4903 62.6784 29.5995 62.6314C28.676 62.5829 28.0904 62.4552 27.4529 62.1635C26.9706 61.943 26.3081 61.4951 25.9805 61.1683C25.6531 60.8414 25.2129 60.1983 25.0022 59.7391C24.7729 59.2394 24.6595 58.7782 24.7194 58.5899C24.8177 58.2807 24.9475 58.2754 32.4919 58.2754C37.8601 58.2754 40.2815 58.2223 40.5537 58.0983C40.7678 58.0011 41.0289 57.7142 41.1339 57.4609C41.2683 57.1376 41.2958 56.4555 41.2265 55.1697C41.1722 54.1629 40.9855 52.7754 40.8114 52.0866C40.6375 51.3978 40.2031 50.2412 39.846 49.5164C39.3532 48.5155 38.9092 47.9088 38.0011 46.995C37.3043 46.294 36.379 45.5566 35.7847 45.2286C35.2237 44.919 34.1289 44.4807 33.352 44.2547C32.2567 43.9359 31.4989 43.8298 29.9776 43.7823C28.8985 43.7488 27.6812 43.7825 27.2722 43.8572ZM54.1969 44.1734C53.6627 44.331 52.871 44.6524 52.4377 44.8879C52.0042 45.1233 51.2937 45.6732 50.8584 46.1098L50.0673 46.9035V46.078C50.0673 45.624 49.998 45.1235 49.9136 44.9659C49.8292 44.8083 49.5361 44.6015 49.2624 44.5062C48.9887 44.411 47.7618 44.3331 46.5359 44.3331C45.3099 44.3331 44.083 44.411 43.8093 44.5062C43.5356 44.6015 43.2426 44.8083 43.1581 44.9659C43.0621 45.1452 43.0045 49.4463 43.0045 56.4522C43.0045 67.6519 43.0045 67.6519 43.4297 67.9857C43.8351 68.3039 43.9933 68.3174 46.8184 68.2712C49.7158 68.224 49.7884 68.2146 50.0814 67.853C50.3663 67.5017 50.3812 67.1426 50.3804 60.647C50.3797 54.5633 50.4094 53.7275 50.651 53.0553C50.8242 52.5725 51.1868 52.0529 51.6553 51.6154C52.1596 51.1446 52.661 50.8518 53.2615 50.6776C53.9592 50.4752 54.3081 50.4563 54.998 50.5836C55.473 50.6712 56.146 50.931 56.4938 51.1606C56.9213 51.4429 57.2666 51.8637 57.5596 52.4596C57.9933 53.3408 57.9933 53.3408 58.0385 60.501C58.0837 67.6613 58.0837 67.6613 58.5029 67.9904C58.9008 68.3028 59.0732 68.3171 61.8856 68.2712C64.8078 68.2235 64.8533 68.2176 65.1576 67.8422C65.4572 67.4725 65.4644 67.2242 65.4109 59.3046C65.3591 51.6411 65.3364 51.0804 65.0341 50.0365C64.8572 49.4253 64.5074 48.5114 64.2565 48.0056C64.0054 47.4993 63.3767 46.6607 62.8578 46.1403C62.326 45.6071 61.5273 45.0074 61.026 44.7652C60.537 44.529 59.728 44.2293 59.2283 44.0994C58.6878 43.9589 57.6813 43.868 56.7439 43.8751C55.7085 43.8831 54.8351 43.9854 54.1969 44.1734ZM12.9484 44.3123C12.4305 44.4608 11.623 44.7906 11.1539 45.0451C10.6847 45.2997 9.90186 45.8958 9.41406 46.3696C8.92641 46.8435 8.37661 47.4427 8.19235 47.7012C7.85742 48.1712 7.85742 48.1712 7.85255 46.6552C7.84769 45.2066 7.82917 45.1247 7.43397 44.8145C7.04489 44.5091 6.82186 44.4898 3.66715 44.4898C0.523114 44.4898 0.29428 44.5094 -2.47359e-06 44.8031C-0.308097 45.1106 -0.313904 45.3252 -0.313904 56.3058C-0.313904 67.4952 -0.313904 67.4952 0.110334 67.8283C0.517464 68.1479 0.668921 68.1595 3.86098 68.1137C6.87287 68.0708 7.21879 68.0381 7.51746 67.7678C7.83984 67.4763 7.84753 67.3514 7.85067 62.3633C7.8524 59.5549 7.92287 56.7799 8.00731 56.1967C8.0919 55.6135 8.36123 54.6971 8.60592 54.1602C8.8754 53.5695 9.31596 52.9461 9.72215 52.5815C10.0913 52.25 10.6486 51.8723 10.9606 51.7423C11.2727 51.6121 11.9711 51.443 12.5127 51.3664C13.1274 51.2795 13.8666 51.2866 14.4787 51.3852C15.0183 51.4722 15.6715 51.5825 15.9305 51.6306C16.2766 51.6946 16.4949 51.6303 16.7545 51.3874C17.0982 51.066 17.1076 50.9721 17.1076 47.8867C17.1076 45.2707 17.0649 44.6552 16.8632 44.3681C16.6415 44.0519 16.4933 44.0209 15.2545 44.031C14.4654 44.0374 13.493 44.156 12.9484 44.3123ZM68.0044 44.5644C67.7106 44.6919 67.4613 44.9361 67.4078 45.1492C67.3573 45.3501 67.3409 49.1437 67.3717 53.579C67.4255 61.3633 67.4393 61.679 67.7689 62.6656C67.9567 63.2278 68.3633 64.109 68.6725 64.6238C68.9819 65.1385 69.4954 65.8331 69.8137 66.1673C70.132 66.5014 70.8026 67.0435 71.3043 67.3716C71.8057 67.7 72.6886 68.1316 73.2661 68.3307C74.1537 68.6368 74.6319 68.6929 76.3565 68.6929C78.0836 68.6929 78.5588 68.6371 79.4517 68.3291C80.0318 68.1291 80.9067 67.6944 81.3957 67.3632C81.8846 67.0319 82.3768 66.7961 82.4893 66.8392C82.6017 66.8823 82.7395 67.1255 82.7956 67.3796C82.8514 67.6339 83.0622 67.9497 83.2637 68.0816C83.5662 68.2795 84.1248 68.3127 86.4624 68.2721C88.8393 68.2307 89.336 68.1814 89.5527 67.9647C89.788 67.7296 89.8086 66.7114 89.7852 56.4746C89.766 48.1712 89.7111 45.1656 89.5746 44.9472C89.473 44.7849 89.1836 44.5803 88.9315 44.4926C88.6795 44.4049 87.3997 44.3331 86.0874 44.3331C84.7752 44.3331 83.4893 44.4071 83.2298 44.4973C82.9702 44.5876 82.6777 44.8167 82.5796 45.0064C82.4562 45.2452 82.3889 47.4982 82.361 52.3225C82.3216 59.1271 82.3125 59.3087 81.9819 59.9202C81.7955 60.2649 81.4423 60.7326 81.1972 60.9598C80.9519 61.1869 80.5039 61.4977 80.2018 61.6506C79.8359 61.8356 79.2855 61.9303 78.5538 61.9339C77.7697 61.9376 77.2481 61.8461 76.7319 61.6141C76.3341 61.4354 75.8293 61.0516 75.61 60.7613C75.3909 60.471 75.0984 59.8963 74.9601 59.484C74.7448 58.8426 74.7085 57.7614 74.7085 51.9934C74.7085 47.8959 74.6482 45.1401 74.5549 44.9659C74.4704 44.8083 74.1774 44.6015 73.9037 44.5062C73.6191 44.4072 72.3576 44.3358 70.9576 44.3393C69.2174 44.3436 68.363 44.4088 68.0044 44.5644ZM93.2781 44.4857C93.0896 44.5644 92.86 44.7691 92.768 44.9407C92.6543 45.1529 92.6009 48.8271 92.6009 56.4522C92.6009 67.6519 92.6009 67.6519 93.0145 67.9765C93.3968 68.2768 93.6338 68.3012 96.1605 68.3012C98.8525 68.3012 98.8988 68.2956 99.2784 67.9167C99.6637 67.5322 99.6637 67.5322 99.6637 56.4113C99.6637 45.2906 99.6637 45.2906 99.2853 44.851C98.9069 44.4115 98.9069 44.4115 96.264 44.377C94.8103 44.3581 93.4668 44.4069 93.2781 44.4857ZM31.6336 49.9638C31.9832 50.116 32.5216 50.4619 32.8302 50.7322C33.1386 51.0025 33.5446 51.5804 33.7325 52.0164C33.9232 52.4586 34.0313 52.944 33.9771 53.1141C33.8841 53.4069 33.702 53.4191 29.4282 53.4191C25.2441 53.4191 24.9708 53.4017 24.8847 53.131C24.8343 52.9726 24.9018 52.5833 25.0346 52.266C25.1675 51.9486 25.5346 51.4034 25.8506 51.0544C26.1663 50.7055 26.7011 50.2793 27.0388 50.1073C27.3764 49.9354 27.9463 49.7336 28.3051 49.6589C28.6639 49.5842 29.4165 49.5599 29.9776 49.6049C30.5387 49.6498 31.2839 49.8113 31.6336 49.9638Z" fill="#003D71"/>
</g>
<defs>
<clipPath id="clip0_2240_61768">
<rect width="140" height="77.8475" fill="white"/>
</clipPath>
</defs>
</svg>
